voice_t piano = voice(20, 200, 50, 50);

int32_t game_tempo = 144;
const int32_t game_melody[] = {
  NOTE_E5, 4,   NOTE_B4,8,  NOTE_C5,8,  NOTE_D5,4,  NOTE_C5,8,  NOTE_B4,8,
  NOTE_A4, 4,   NOTE_A4,8,  NOTE_C5,8,  NOTE_E5,4,  NOTE_D5,8,  NOTE_C5,8,
  NOTE_B4, -4,  NOTE_C5,8,  NOTE_D5,4,  NOTE_E5,4,
  NOTE_C5, 4,   NOTE_A4,4,  NOTE_A4,8,  NOTE_A4,4,  NOTE_B4,8,  NOTE_C5,8,

  NOTE_D5, -4,  NOTE_F5,8,  NOTE_A5,4,  NOTE_G5,8,  NOTE_F5,8,
  NOTE_E5, -4,  NOTE_C5,8,  NOTE_E5,4,  NOTE_D5,8,  NOTE_C5,8,
  NOTE_B4, 4,   NOTE_B4,8,  NOTE_C5,8,  NOTE_D5,4,  NOTE_E5,4,
  NOTE_C5, 4,   NOTE_A4,4,  NOTE_A4,4,  REST, 4,

  NOTE_E5, 4,   NOTE_B4,8,  NOTE_C5,8,  NOTE_D5,4,  NOTE_C5,8,  NOTE_B4,8,
  NOTE_A4, 4,   NOTE_A4,8,  NOTE_C5,8,  NOTE_E5,4,  NOTE_D5,8,  NOTE_C5,8,
  NOTE_B4, -4,  NOTE_C5,8,  NOTE_D5,4,  NOTE_E5,4,
  NOTE_C5, 4,   NOTE_A4,4,  NOTE_A4,8,  NOTE_A4,4,  NOTE_B4,8,  NOTE_C5,8,

  NOTE_D5, -4,  NOTE_F5,8,  NOTE_A5,4,  NOTE_G5,8,  NOTE_F5,8,
  NOTE_E5, -4,  NOTE_C5,8,  NOTE_E5,4,  NOTE_D5,8,  NOTE_C5,8,
  NOTE_B4, 4,   NOTE_B4,8,  NOTE_C5,8,  NOTE_D5,4,  NOTE_E5,4,
  NOTE_C5, 4,   NOTE_A4,4,  NOTE_A4,4,  REST, 4,
  
  NOTE_E5,2,   NOTE_C5,2,
  NOTE_D5,2,   NOTE_B4,2,
  NOTE_C5,2,   NOTE_A4,2,
  NOTE_GS4,2,  NOTE_B4,4,   REST,8, 
  NOTE_E5,2,   NOTE_C5,2,
  NOTE_D5,2,   NOTE_B4,2,
  NOTE_C5,4,   NOTE_E5,4,   NOTE_A5,2,
  NOTE_GS5,2,
};

int32_t title_tempo = 132;
const int title_melody[] = {
  NOTE_C4,-8, NOTE_E4,16, NOTE_G4,8, NOTE_C5,8, NOTE_E5,8, NOTE_D5,8, NOTE_C5,8, NOTE_A4,8,
  NOTE_FS4,8, NOTE_G4,8, REST,4, REST,2,
  NOTE_C4,-8, NOTE_E4,16, NOTE_G4,8, NOTE_C5,8, NOTE_E5,8, NOTE_D5,8, NOTE_C5,8, NOTE_A4,8,
  NOTE_G4,-2, NOTE_A4,8, NOTE_DS4,1,
  
  NOTE_A4,8,
  NOTE_E4,8, NOTE_C4,8, REST,4, REST,2,
  NOTE_C4,-8, NOTE_E4,16, NOTE_G4,8, NOTE_C5,8, NOTE_E5,8, NOTE_D5,8, NOTE_C5,8, NOTE_A4,8,
  NOTE_FS4,8, NOTE_G4,8, REST,4, REST,4, REST,8, NOTE_G4,8,
  NOTE_D5,4, NOTE_D5,4, NOTE_B4,8, NOTE_G4,8, REST,8, NOTE_G4,8,
   
  NOTE_C5,4, NOTE_C5,4, NOTE_AS4,16, NOTE_C5,16, NOTE_AS4,16, NOTE_G4,16, NOTE_F4,8, NOTE_DS4,8,
  NOTE_FS4,4, NOTE_FS4,4, NOTE_F4,16, NOTE_G4,16, NOTE_F4,16, NOTE_DS4,16, NOTE_C4,8, NOTE_G4,8,
  NOTE_AS4,8, NOTE_C5,8, REST,4, REST,2,
};

int32_t gameover_tempo = 120;
const int32_t gameover_melody[] = {
  NOTE_A4,-4, NOTE_A4,-4, NOTE_A4,16, NOTE_A4,16, NOTE_A4,16, NOTE_A4,16, NOTE_F4,8, REST,8,
  NOTE_A4,-4, NOTE_A4,-4, NOTE_A4,16, NOTE_A4,16, NOTE_A4,16, NOTE_A4,16, NOTE_F4,8, REST,8,
  NOTE_A4,4, NOTE_A4,4, NOTE_A4,4, NOTE_F4,-8, NOTE_C5,16,

  NOTE_A4,4, NOTE_F4,-8, NOTE_C5,16, NOTE_A4,2,//4
  NOTE_E5,4, NOTE_E5,4, NOTE_E5,4, NOTE_F5,-8, NOTE_C5,16,
  NOTE_A4,4, NOTE_F4,-8, NOTE_C5,16, NOTE_A4,2,
  
  NOTE_A5,4, NOTE_A4,-8, NOTE_A4,16, NOTE_A5,4, NOTE_GS5,-8, NOTE_G5,16, //7 
  NOTE_DS5,16, NOTE_D5,16, NOTE_DS5,8, REST,8, NOTE_A4,8, NOTE_DS5,4, NOTE_D5,-8, NOTE_CS5,16,

  NOTE_C5,16, NOTE_B4,16, NOTE_C5,16, REST,8, NOTE_F4,8, NOTE_GS4,4, NOTE_F4,-8, NOTE_A4,-16,//9
  NOTE_C5,4, NOTE_A4,-8, NOTE_C5,16, NOTE_E5,2,

  NOTE_A5,4, NOTE_A4,-8, NOTE_A4,16, NOTE_A5,4, NOTE_GS5,-8, NOTE_G5,16, //7 
  NOTE_DS5,16, NOTE_D5,16, NOTE_DS5,8, REST,8, NOTE_A4,8, NOTE_DS5,4, NOTE_D5,-8, NOTE_CS5,16,

  NOTE_C5,16, NOTE_B4,16, NOTE_C5,16, REST,8, NOTE_F4,8, NOTE_GS4,4, NOTE_F4,-8, NOTE_A4,-16,//9
  NOTE_A4,4, NOTE_F4,-8, NOTE_C5,16, NOTE_A4,2
};